<mxfile host="app.diagrams.net" agent="Mozilla/5.0 (Windows NT 10.0; Win64; x64) AppleWebKit/537.36 (KHTML, like Gecko) Chrome/129.0.0.0 Safari/537.36" version="24.7.17">
  <diagram name="Page-1" id="e7e014a7-5840-1c2e-5031-d8a46d1fe8dd">
    <mxGraphModel dx="4550" dy="2077" grid="1" gridSize="10" guides="1" tooltips="1" connect="1" arrows="1" fold="1" page="1" pageScale="1" pageWidth="2336" pageHeight="1654" background="none" math="0" shadow="0">
      <root>
        <mxCell id="0" />
        <mxCell id="1" parent="0" />
        <mxCell id="2" value="THH" style="swimlane;whiteSpace=wrap" parent="1" vertex="1">
          <mxGeometry x="-90" y="50" width="535" height="648" as="geometry" />
        </mxCell>
        <mxCell id="12" value="" style="edgeStyle=elbowEdgeStyle;elbow=horizontal;strokeColor=#FF0000;endArrow=open;endFill=1;rounded=0" parent="2" source="10" edge="1">
          <mxGeometry width="100" height="100" relative="1" as="geometry">
            <mxPoint x="160" y="290" as="sourcePoint" />
            <mxPoint x="60" y="135" as="targetPoint" />
            <Array as="points">
              <mxPoint x="30" y="250" />
            </Array>
          </mxGeometry>
        </mxCell>
        <mxCell id="KgXTIH03xkjFcmubIFTQ-42" value="Bắt đầu" style="rounded=1;whiteSpace=wrap;html=1;" vertex="1" parent="2">
          <mxGeometry x="40" y="74" width="65" height="42" as="geometry" />
        </mxCell>
        <mxCell id="KgXTIH03xkjFcmubIFTQ-43" value="tìm kiếm khách hàng" style="html=1;whiteSpace=wrap;" vertex="1" parent="2">
          <mxGeometry x="150" y="70" width="110" height="50" as="geometry" />
        </mxCell>
        <mxCell id="KgXTIH03xkjFcmubIFTQ-44" style="edgeStyle=none;curved=1;rounded=0;orthogonalLoop=1;jettySize=auto;html=1;exitX=1;exitY=1;exitDx=0;exitDy=0;fontSize=12;startSize=8;endSize=8;" edge="1" parent="2" source="KgXTIH03xkjFcmubIFTQ-43" target="KgXTIH03xkjFcmubIFTQ-43">
          <mxGeometry relative="1" as="geometry" />
        </mxCell>
        <mxCell id="KgXTIH03xkjFcmubIFTQ-45" value="" style="endArrow=classic;html=1;rounded=0;fontSize=12;startSize=8;endSize=8;curved=1;entryX=0;entryY=0.5;entryDx=0;entryDy=0;" edge="1" parent="2" target="KgXTIH03xkjFcmubIFTQ-43">
          <mxGeometry width="50" height="50" relative="1" as="geometry">
            <mxPoint x="105" y="96" as="sourcePoint" />
            <mxPoint x="155" y="46" as="targetPoint" />
          </mxGeometry>
        </mxCell>
        <mxCell id="KgXTIH03xkjFcmubIFTQ-47" value="khách hàng" style="rhombus;whiteSpace=wrap;html=1;" vertex="1" parent="2">
          <mxGeometry x="320" y="55" width="80" height="80" as="geometry" />
        </mxCell>
        <mxCell id="KgXTIH03xkjFcmubIFTQ-48" value="" style="endArrow=classic;html=1;rounded=0;fontSize=12;startSize=8;endSize=8;curved=1;entryX=0;entryY=0.5;entryDx=0;entryDy=0;exitX=1;exitY=0.5;exitDx=0;exitDy=0;" edge="1" parent="2" source="KgXTIH03xkjFcmubIFTQ-43" target="KgXTIH03xkjFcmubIFTQ-47">
          <mxGeometry width="50" height="50" relative="1" as="geometry">
            <mxPoint x="260" y="100" as="sourcePoint" />
            <mxPoint x="310" y="50" as="targetPoint" />
          </mxGeometry>
        </mxCell>
        <mxCell id="KgXTIH03xkjFcmubIFTQ-54" value="" style="edgeStyle=segmentEdgeStyle;endArrow=classic;html=1;curved=0;rounded=0;endSize=8;startSize=8;fontSize=12;entryX=0.415;entryY=0;entryDx=0;entryDy=0;entryPerimeter=0;" edge="1" parent="2" target="KgXTIH03xkjFcmubIFTQ-43">
          <mxGeometry width="50" height="50" relative="1" as="geometry">
            <mxPoint x="360" y="55" as="sourcePoint" />
            <mxPoint x="410" y="5" as="targetPoint" />
            <Array as="points">
              <mxPoint x="360" y="40" />
              <mxPoint x="196" y="40" />
            </Array>
          </mxGeometry>
        </mxCell>
        <mxCell id="KgXTIH03xkjFcmubIFTQ-55" value="No" style="edgeLabel;html=1;align=center;verticalAlign=middle;resizable=0;points=[];fontSize=12;" vertex="1" connectable="0" parent="KgXTIH03xkjFcmubIFTQ-54">
          <mxGeometry x="-0.0496" y="1" relative="1" as="geometry">
            <mxPoint as="offset" />
          </mxGeometry>
        </mxCell>
        <mxCell id="KgXTIH03xkjFcmubIFTQ-56" value="trao đổi" style="rounded=0;whiteSpace=wrap;html=1;" vertex="1" parent="2">
          <mxGeometry x="320" y="210" width="80" height="50" as="geometry" />
        </mxCell>
        <mxCell id="KgXTIH03xkjFcmubIFTQ-60" value="" style="endArrow=classic;html=1;rounded=0;fontSize=12;startSize=8;endSize=8;curved=1;entryX=0.5;entryY=0;entryDx=0;entryDy=0;" edge="1" parent="2" target="KgXTIH03xkjFcmubIFTQ-56">
          <mxGeometry width="50" height="50" relative="1" as="geometry">
            <mxPoint x="360" y="135" as="sourcePoint" />
            <mxPoint x="410" y="85" as="targetPoint" />
          </mxGeometry>
        </mxCell>
        <mxCell id="KgXTIH03xkjFcmubIFTQ-70" value="nhận báo giá" style="rounded=0;whiteSpace=wrap;html=1;" vertex="1" parent="2">
          <mxGeometry x="360" y="520" width="120" height="60" as="geometry" />
        </mxCell>
        <mxCell id="KgXTIH03xkjFcmubIFTQ-76" value="chỉnh sửa thông tin báo giá" style="rounded=0;whiteSpace=wrap;html=1;" vertex="1" parent="2">
          <mxGeometry x="180" y="520" width="120" height="60" as="geometry" />
        </mxCell>
        <mxCell id="KgXTIH03xkjFcmubIFTQ-77" value="" style="endArrow=classic;html=1;rounded=0;fontSize=12;startSize=8;endSize=8;curved=1;entryX=1.002;entryY=0.686;entryDx=0;entryDy=0;entryPerimeter=0;" edge="1" parent="2" target="KgXTIH03xkjFcmubIFTQ-76">
          <mxGeometry width="50" height="50" relative="1" as="geometry">
            <mxPoint x="360" y="560" as="sourcePoint" />
            <mxPoint x="410" y="510" as="targetPoint" />
          </mxGeometry>
        </mxCell>
        <mxCell id="KgXTIH03xkjFcmubIFTQ-78" value="gửi báo giá" style="shape=trapezoid;perimeter=trapezoidPerimeter;whiteSpace=wrap;html=1;fixedSize=1;size=30;rotation=0;" vertex="1" parent="2">
          <mxGeometry x="180" y="390" width="120" height="60" as="geometry" />
        </mxCell>
        <mxCell id="KgXTIH03xkjFcmubIFTQ-82" value="" style="endArrow=classic;html=1;rounded=0;fontSize=12;startSize=8;endSize=8;curved=1;entryX=0.45;entryY=0.973;entryDx=0;entryDy=0;entryPerimeter=0;" edge="1" parent="2" target="KgXTIH03xkjFcmubIFTQ-78">
          <mxGeometry width="50" height="50" relative="1" as="geometry">
            <mxPoint x="234.04" y="520" as="sourcePoint" />
            <mxPoint x="230.00000000000003" y="448.55999999999995" as="targetPoint" />
          </mxGeometry>
        </mxCell>
        <mxCell id="KgXTIH03xkjFcmubIFTQ-103" value="" style="edgeStyle=segmentEdgeStyle;endArrow=classic;html=1;curved=0;rounded=0;endSize=8;startSize=8;fontSize=12;entryX=0.5;entryY=0;entryDx=0;entryDy=0;" edge="1" parent="2" target="KgXTIH03xkjFcmubIFTQ-79">
          <mxGeometry width="50" height="50" relative="1" as="geometry">
            <mxPoint x="240" y="388" as="sourcePoint" />
            <mxPoint x="-80" y="388" as="targetPoint" />
            <Array as="points">
              <mxPoint x="240" y="350" />
              <mxPoint x="-80" y="350" />
            </Array>
          </mxGeometry>
        </mxCell>
        <mxCell id="KgXTIH03xkjFcmubIFTQ-107" value="phản hồi thông tin khách hàng" style="rounded=0;whiteSpace=wrap;html=1;" vertex="1" parent="2">
          <mxGeometry x="20" y="520" width="120" height="60" as="geometry" />
        </mxCell>
        <mxCell id="KgXTIH03xkjFcmubIFTQ-110" value="" style="endArrow=classic;html=1;rounded=0;fontSize=12;startSize=8;endSize=8;curved=1;entryX=0;entryY=0.5;entryDx=0;entryDy=0;" edge="1" parent="2" target="KgXTIH03xkjFcmubIFTQ-76">
          <mxGeometry width="50" height="50" relative="1" as="geometry">
            <mxPoint x="140" y="550" as="sourcePoint" />
            <mxPoint x="190" y="500" as="targetPoint" />
          </mxGeometry>
        </mxCell>
        <mxCell id="3" value="KH" style="swimlane;whiteSpace=wrap" parent="1" vertex="1">
          <mxGeometry x="-450" y="50" width="360" height="648" as="geometry" />
        </mxCell>
        <mxCell id="KgXTIH03xkjFcmubIFTQ-79" value="thắc mắc ?" style="rhombus;whiteSpace=wrap;html=1;" vertex="1" parent="3">
          <mxGeometry x="240" y="430" width="80" height="80" as="geometry" />
        </mxCell>
        <mxCell id="KgXTIH03xkjFcmubIFTQ-57" value="trao đổi" style="rounded=0;whiteSpace=wrap;html=1;" vertex="1" parent="3">
          <mxGeometry x="150" y="210" width="80" height="50" as="geometry" />
        </mxCell>
        <mxCell id="KgXTIH03xkjFcmubIFTQ-104" value="chốt hợp đồng" style="rounded=0;whiteSpace=wrap;html=1;" vertex="1" parent="3">
          <mxGeometry x="10" y="440" width="120" height="60" as="geometry" />
        </mxCell>
        <mxCell id="KgXTIH03xkjFcmubIFTQ-105" value="" style="endArrow=classic;html=1;rounded=0;fontSize=12;startSize=8;endSize=8;curved=1;exitX=0;exitY=0.5;exitDx=0;exitDy=0;entryX=1;entryY=0.5;entryDx=0;entryDy=0;" edge="1" parent="3" source="KgXTIH03xkjFcmubIFTQ-79" target="KgXTIH03xkjFcmubIFTQ-104">
          <mxGeometry width="50" height="50" relative="1" as="geometry">
            <mxPoint x="210" y="530" as="sourcePoint" />
            <mxPoint x="260" y="480" as="targetPoint" />
          </mxGeometry>
        </mxCell>
        <mxCell id="KgXTIH03xkjFcmubIFTQ-106" value="No" style="edgeLabel;html=1;align=center;verticalAlign=middle;resizable=0;points=[];fontSize=12;" vertex="1" connectable="0" parent="KgXTIH03xkjFcmubIFTQ-105">
          <mxGeometry x="-0.2227" relative="1" as="geometry">
            <mxPoint as="offset" />
          </mxGeometry>
        </mxCell>
        <mxCell id="4" value="HDS" style="swimlane;whiteSpace=wrap" parent="1" vertex="1">
          <mxGeometry x="445" y="50" width="280" height="648" as="geometry" />
        </mxCell>
        <mxCell id="KgXTIH03xkjFcmubIFTQ-58" value="trao đổi" style="rounded=0;whiteSpace=wrap;html=1;" vertex="1" parent="4">
          <mxGeometry x="45" y="210" width="80" height="50" as="geometry" />
        </mxCell>
        <mxCell id="KgXTIH03xkjFcmubIFTQ-64" value="khảo sát thực tế" style="rounded=0;whiteSpace=wrap;html=1;" vertex="1" parent="4">
          <mxGeometry x="25" y="320" width="120" height="60" as="geometry" />
        </mxCell>
        <mxCell id="KgXTIH03xkjFcmubIFTQ-65" value="" style="endArrow=classic;html=1;rounded=0;fontSize=12;startSize=8;endSize=8;curved=1;entryX=0.5;entryY=0;entryDx=0;entryDy=0;" edge="1" parent="4" target="KgXTIH03xkjFcmubIFTQ-64">
          <mxGeometry width="50" height="50" relative="1" as="geometry">
            <mxPoint x="85" y="260" as="sourcePoint" />
            <mxPoint x="135" y="210" as="targetPoint" />
          </mxGeometry>
        </mxCell>
        <mxCell id="KgXTIH03xkjFcmubIFTQ-66" value="làm đề xuất" style="rounded=0;whiteSpace=wrap;html=1;" vertex="1" parent="4">
          <mxGeometry x="25" y="420" width="120" height="60" as="geometry" />
        </mxCell>
        <mxCell id="KgXTIH03xkjFcmubIFTQ-67" value="" style="endArrow=classic;html=1;rounded=0;fontSize=12;startSize=8;endSize=8;curved=1;entryX=0.5;entryY=0;entryDx=0;entryDy=0;" edge="1" parent="4" target="KgXTIH03xkjFcmubIFTQ-66">
          <mxGeometry width="50" height="50" relative="1" as="geometry">
            <mxPoint x="85" y="380" as="sourcePoint" />
            <mxPoint x="135" y="330" as="targetPoint" />
          </mxGeometry>
        </mxCell>
        <mxCell id="KgXTIH03xkjFcmubIFTQ-68" value="báo giá" style="rounded=0;whiteSpace=wrap;html=1;" vertex="1" parent="4">
          <mxGeometry x="25" y="520" width="120" height="60" as="geometry" />
        </mxCell>
        <mxCell id="KgXTIH03xkjFcmubIFTQ-69" value="" style="endArrow=classic;html=1;rounded=0;fontSize=12;startSize=8;endSize=8;curved=1;entryX=0.5;entryY=0;entryDx=0;entryDy=0;" edge="1" parent="4" target="KgXTIH03xkjFcmubIFTQ-68">
          <mxGeometry width="50" height="50" relative="1" as="geometry">
            <mxPoint x="85" y="480" as="sourcePoint" />
            <mxPoint x="135" y="430" as="targetPoint" />
          </mxGeometry>
        </mxCell>
        <mxCell id="KgXTIH03xkjFcmubIFTQ-113" style="edgeStyle=none;curved=1;rounded=0;orthogonalLoop=1;jettySize=auto;html=1;exitX=0;exitY=0.75;exitDx=0;exitDy=0;fontSize=12;startSize=8;endSize=8;" edge="1" parent="4" source="KgXTIH03xkjFcmubIFTQ-64" target="KgXTIH03xkjFcmubIFTQ-64">
          <mxGeometry relative="1" as="geometry" />
        </mxCell>
        <mxCell id="KgXTIH03xkjFcmubIFTQ-74" value="" style="endArrow=classic;html=1;rounded=0;fontSize=12;startSize=8;endSize=8;curved=1;exitX=0;exitY=0.5;exitDx=0;exitDy=0;" edge="1" parent="1" source="KgXTIH03xkjFcmubIFTQ-68" target="KgXTIH03xkjFcmubIFTQ-70">
          <mxGeometry width="50" height="50" relative="1" as="geometry">
            <mxPoint x="750" y="610" as="sourcePoint" />
            <mxPoint x="800" y="560" as="targetPoint" />
          </mxGeometry>
        </mxCell>
        <mxCell id="KgXTIH03xkjFcmubIFTQ-80" value="" style="endArrow=classic;startArrow=classic;html=1;rounded=0;fontSize=12;startSize=8;endSize=8;curved=1;" edge="1" parent="1" target="KgXTIH03xkjFcmubIFTQ-57">
          <mxGeometry width="50" height="50" relative="1" as="geometry">
            <mxPoint x="230" y="285" as="sourcePoint" />
            <mxPoint x="-240" y="285" as="targetPoint" />
            <Array as="points">
              <mxPoint x="140" y="285" />
            </Array>
          </mxGeometry>
        </mxCell>
        <mxCell id="KgXTIH03xkjFcmubIFTQ-81" value="" style="endArrow=classic;startArrow=classic;html=1;rounded=0;fontSize=12;startSize=8;endSize=8;curved=1;entryX=0;entryY=0.5;entryDx=0;entryDy=0;exitX=1;exitY=0.5;exitDx=0;exitDy=0;" edge="1" parent="1" source="KgXTIH03xkjFcmubIFTQ-56" target="KgXTIH03xkjFcmubIFTQ-58">
          <mxGeometry width="50" height="50" relative="1" as="geometry">
            <mxPoint x="320" y="285" as="sourcePoint" />
            <mxPoint x="360" y="240" as="targetPoint" />
          </mxGeometry>
        </mxCell>
        <mxCell id="KgXTIH03xkjFcmubIFTQ-108" value="" style="edgeStyle=segmentEdgeStyle;endArrow=classic;html=1;curved=0;rounded=0;endSize=8;startSize=8;fontSize=12;exitX=0.5;exitY=1;exitDx=0;exitDy=0;entryX=0;entryY=0.5;entryDx=0;entryDy=0;" edge="1" parent="1" source="KgXTIH03xkjFcmubIFTQ-79" target="KgXTIH03xkjFcmubIFTQ-107">
          <mxGeometry width="50" height="50" relative="1" as="geometry">
            <mxPoint x="-160" y="580" as="sourcePoint" />
            <mxPoint x="-170" y="640" as="targetPoint" />
            <Array as="points">
              <mxPoint x="-170" y="600" />
            </Array>
          </mxGeometry>
        </mxCell>
        <mxCell id="KgXTIH03xkjFcmubIFTQ-109" value="Yes" style="edgeLabel;html=1;align=center;verticalAlign=middle;resizable=0;points=[];fontSize=12;" vertex="1" connectable="0" parent="KgXTIH03xkjFcmubIFTQ-108">
          <mxGeometry x="0.0694" relative="1" as="geometry">
            <mxPoint as="offset" />
          </mxGeometry>
        </mxCell>
        <mxCell id="KgXTIH03xkjFcmubIFTQ-112" value="" style="edgeStyle=segmentEdgeStyle;endArrow=classic;html=1;curved=0;rounded=0;endSize=8;startSize=8;fontSize=12;exitX=0.75;exitY=1;exitDx=0;exitDy=0;entryX=0;entryY=0.5;entryDx=0;entryDy=0;" edge="1" parent="1" source="KgXTIH03xkjFcmubIFTQ-56" target="KgXTIH03xkjFcmubIFTQ-64">
          <mxGeometry width="50" height="50" relative="1" as="geometry">
            <mxPoint x="290" y="413" as="sourcePoint" />
            <mxPoint x="340" y="363" as="targetPoint" />
            <Array as="points">
              <mxPoint x="290" y="400" />
            </Array>
          </mxGeometry>
        </mxCell>
        <mxCell id="KgXTIH03xkjFcmubIFTQ-114" value="&lt;font style=&quot;font-size: 30px;&quot;&gt;mô hình kinh doanh 1&lt;/font&gt;" style="text;html=1;align=center;verticalAlign=middle;resizable=0;points=[];autosize=1;strokeColor=none;fillColor=none;fontSize=16;" vertex="1" parent="1">
          <mxGeometry x="-5" y="740" width="310" height="50" as="geometry" />
        </mxCell>
        <mxCell id="GHh6FDXqc8ulfZKmopt3-54" value="THH" style="swimlane;whiteSpace=wrap" vertex="1" parent="1">
          <mxGeometry x="-450" y="850" width="430" height="710" as="geometry" />
        </mxCell>
        <mxCell id="GHh6FDXqc8ulfZKmopt3-56" value="Bắt đầu" style="rounded=1;whiteSpace=wrap;html=1;" vertex="1" parent="GHh6FDXqc8ulfZKmopt3-54">
          <mxGeometry x="40" y="74" width="65" height="42" as="geometry" />
        </mxCell>
        <mxCell id="GHh6FDXqc8ulfZKmopt3-57" value="tìm kiếm khách hàng" style="html=1;whiteSpace=wrap;" vertex="1" parent="GHh6FDXqc8ulfZKmopt3-54">
          <mxGeometry x="150" y="70" width="110" height="50" as="geometry" />
        </mxCell>
        <mxCell id="GHh6FDXqc8ulfZKmopt3-58" style="edgeStyle=none;curved=1;rounded=0;orthogonalLoop=1;jettySize=auto;html=1;exitX=1;exitY=1;exitDx=0;exitDy=0;fontSize=12;startSize=8;endSize=8;" edge="1" parent="GHh6FDXqc8ulfZKmopt3-54" source="GHh6FDXqc8ulfZKmopt3-57" target="GHh6FDXqc8ulfZKmopt3-57">
          <mxGeometry relative="1" as="geometry" />
        </mxCell>
        <mxCell id="GHh6FDXqc8ulfZKmopt3-59" value="" style="endArrow=classic;html=1;rounded=0;fontSize=12;startSize=8;endSize=8;curved=1;entryX=0;entryY=0.5;entryDx=0;entryDy=0;" edge="1" parent="GHh6FDXqc8ulfZKmopt3-54" target="GHh6FDXqc8ulfZKmopt3-57">
          <mxGeometry width="50" height="50" relative="1" as="geometry">
            <mxPoint x="105" y="96" as="sourcePoint" />
            <mxPoint x="155" y="46" as="targetPoint" />
          </mxGeometry>
        </mxCell>
        <mxCell id="GHh6FDXqc8ulfZKmopt3-60" value="khách hàng" style="rhombus;whiteSpace=wrap;html=1;" vertex="1" parent="GHh6FDXqc8ulfZKmopt3-54">
          <mxGeometry x="320" y="55" width="80" height="80" as="geometry" />
        </mxCell>
        <mxCell id="GHh6FDXqc8ulfZKmopt3-61" value="" style="endArrow=classic;html=1;rounded=0;fontSize=12;startSize=8;endSize=8;curved=1;entryX=0;entryY=0.5;entryDx=0;entryDy=0;exitX=1;exitY=0.5;exitDx=0;exitDy=0;" edge="1" parent="GHh6FDXqc8ulfZKmopt3-54" source="GHh6FDXqc8ulfZKmopt3-57" target="GHh6FDXqc8ulfZKmopt3-60">
          <mxGeometry width="50" height="50" relative="1" as="geometry">
            <mxPoint x="260" y="100" as="sourcePoint" />
            <mxPoint x="310" y="50" as="targetPoint" />
          </mxGeometry>
        </mxCell>
        <mxCell id="GHh6FDXqc8ulfZKmopt3-62" value="" style="edgeStyle=segmentEdgeStyle;endArrow=classic;html=1;curved=0;rounded=0;endSize=8;startSize=8;fontSize=12;entryX=0.415;entryY=0;entryDx=0;entryDy=0;entryPerimeter=0;" edge="1" parent="GHh6FDXqc8ulfZKmopt3-54" target="GHh6FDXqc8ulfZKmopt3-57">
          <mxGeometry width="50" height="50" relative="1" as="geometry">
            <mxPoint x="360" y="55" as="sourcePoint" />
            <mxPoint x="410" y="5" as="targetPoint" />
            <Array as="points">
              <mxPoint x="360" y="40" />
              <mxPoint x="196" y="40" />
            </Array>
          </mxGeometry>
        </mxCell>
        <mxCell id="GHh6FDXqc8ulfZKmopt3-63" value="No" style="edgeLabel;html=1;align=center;verticalAlign=middle;resizable=0;points=[];fontSize=12;" vertex="1" connectable="0" parent="GHh6FDXqc8ulfZKmopt3-62">
          <mxGeometry x="-0.0496" y="1" relative="1" as="geometry">
            <mxPoint as="offset" />
          </mxGeometry>
        </mxCell>
        <mxCell id="GHh6FDXqc8ulfZKmopt3-64" value="trao đổi" style="rounded=0;whiteSpace=wrap;html=1;" vertex="1" parent="GHh6FDXqc8ulfZKmopt3-54">
          <mxGeometry x="320" y="210" width="80" height="50" as="geometry" />
        </mxCell>
        <mxCell id="GHh6FDXqc8ulfZKmopt3-65" value="" style="endArrow=classic;html=1;rounded=0;fontSize=12;startSize=8;endSize=8;curved=1;entryX=0.5;entryY=0;entryDx=0;entryDy=0;" edge="1" parent="GHh6FDXqc8ulfZKmopt3-54" target="GHh6FDXqc8ulfZKmopt3-64">
          <mxGeometry width="50" height="50" relative="1" as="geometry">
            <mxPoint x="360" y="135" as="sourcePoint" />
            <mxPoint x="410" y="85" as="targetPoint" />
          </mxGeometry>
        </mxCell>
        <mxCell id="GHh6FDXqc8ulfZKmopt3-74" value="KH" style="swimlane;whiteSpace=wrap" vertex="1" parent="1">
          <mxGeometry x="-20" y="850" width="360" height="710" as="geometry" />
        </mxCell>
        <mxCell id="GHh6FDXqc8ulfZKmopt3-75" value="thắc mắc ?" style="rhombus;whiteSpace=wrap;html=1;" vertex="1" parent="GHh6FDXqc8ulfZKmopt3-74">
          <mxGeometry x="230" y="610" width="80" height="80" as="geometry" />
        </mxCell>
        <mxCell id="GHh6FDXqc8ulfZKmopt3-76" value="trao đổi" style="rounded=0;whiteSpace=wrap;html=1;" vertex="1" parent="GHh6FDXqc8ulfZKmopt3-74">
          <mxGeometry x="110" y="210" width="80" height="50" as="geometry" />
        </mxCell>
        <mxCell id="GHh6FDXqc8ulfZKmopt3-77" value="chốt hợp đồng" style="rounded=0;whiteSpace=wrap;html=1;" vertex="1" parent="GHh6FDXqc8ulfZKmopt3-74">
          <mxGeometry x="25" y="620" width="120" height="60" as="geometry" />
        </mxCell>
        <mxCell id="GHh6FDXqc8ulfZKmopt3-78" value="" style="endArrow=classic;html=1;rounded=0;fontSize=12;startSize=8;endSize=8;curved=1;exitX=0;exitY=0.5;exitDx=0;exitDy=0;entryX=1;entryY=0.5;entryDx=0;entryDy=0;" edge="1" parent="GHh6FDXqc8ulfZKmopt3-74" source="GHh6FDXqc8ulfZKmopt3-75" target="GHh6FDXqc8ulfZKmopt3-77">
          <mxGeometry width="50" height="50" relative="1" as="geometry">
            <mxPoint x="225" y="710" as="sourcePoint" />
            <mxPoint x="275" y="660" as="targetPoint" />
          </mxGeometry>
        </mxCell>
        <mxCell id="GHh6FDXqc8ulfZKmopt3-79" value="No" style="edgeLabel;html=1;align=center;verticalAlign=middle;resizable=0;points=[];fontSize=12;" vertex="1" connectable="0" parent="GHh6FDXqc8ulfZKmopt3-78">
          <mxGeometry x="-0.2227" relative="1" as="geometry">
            <mxPoint as="offset" />
          </mxGeometry>
        </mxCell>
        <mxCell id="GHh6FDXqc8ulfZKmopt3-80" value="HDS" style="swimlane;whiteSpace=wrap" vertex="1" parent="1">
          <mxGeometry x="340" y="850" width="360" height="710" as="geometry" />
        </mxCell>
        <mxCell id="GHh6FDXqc8ulfZKmopt3-81" value="trao đổi" style="rounded=0;whiteSpace=wrap;html=1;" vertex="1" parent="GHh6FDXqc8ulfZKmopt3-80">
          <mxGeometry x="230" y="210" width="80" height="50" as="geometry" />
        </mxCell>
        <mxCell id="GHh6FDXqc8ulfZKmopt3-82" value="khảo sát thực tế" style="rounded=0;whiteSpace=wrap;html=1;" vertex="1" parent="GHh6FDXqc8ulfZKmopt3-80">
          <mxGeometry x="210" y="320" width="120" height="60" as="geometry" />
        </mxCell>
        <mxCell id="GHh6FDXqc8ulfZKmopt3-83" value="" style="endArrow=classic;html=1;rounded=0;fontSize=12;startSize=8;endSize=8;curved=1;entryX=0.5;entryY=0;entryDx=0;entryDy=0;" edge="1" parent="GHh6FDXqc8ulfZKmopt3-80" target="GHh6FDXqc8ulfZKmopt3-82">
          <mxGeometry width="50" height="50" relative="1" as="geometry">
            <mxPoint x="270" y="260" as="sourcePoint" />
            <mxPoint x="320" y="210" as="targetPoint" />
          </mxGeometry>
        </mxCell>
        <mxCell id="GHh6FDXqc8ulfZKmopt3-84" value="làm đề xuất" style="rounded=0;whiteSpace=wrap;html=1;" vertex="1" parent="GHh6FDXqc8ulfZKmopt3-80">
          <mxGeometry x="210" y="420" width="120" height="60" as="geometry" />
        </mxCell>
        <mxCell id="GHh6FDXqc8ulfZKmopt3-85" value="" style="endArrow=classic;html=1;rounded=0;fontSize=12;startSize=8;endSize=8;curved=1;entryX=0.5;entryY=0;entryDx=0;entryDy=0;" edge="1" parent="GHh6FDXqc8ulfZKmopt3-80" target="GHh6FDXqc8ulfZKmopt3-84">
          <mxGeometry width="50" height="50" relative="1" as="geometry">
            <mxPoint x="270" y="380" as="sourcePoint" />
            <mxPoint x="320" y="330" as="targetPoint" />
          </mxGeometry>
        </mxCell>
        <mxCell id="GHh6FDXqc8ulfZKmopt3-86" value="chỉnh sửa thông tin báo giá" style="rounded=0;whiteSpace=wrap;html=1;" vertex="1" parent="GHh6FDXqc8ulfZKmopt3-80">
          <mxGeometry x="210" y="520" width="120" height="60" as="geometry" />
        </mxCell>
        <mxCell id="GHh6FDXqc8ulfZKmopt3-87" value="" style="endArrow=classic;html=1;rounded=0;fontSize=12;startSize=8;endSize=8;curved=1;entryX=0.5;entryY=0;entryDx=0;entryDy=0;" edge="1" parent="GHh6FDXqc8ulfZKmopt3-80" target="GHh6FDXqc8ulfZKmopt3-86">
          <mxGeometry width="50" height="50" relative="1" as="geometry">
            <mxPoint x="270" y="480" as="sourcePoint" />
            <mxPoint x="320" y="430" as="targetPoint" />
          </mxGeometry>
        </mxCell>
        <mxCell id="GHh6FDXqc8ulfZKmopt3-88" style="edgeStyle=none;curved=1;rounded=0;orthogonalLoop=1;jettySize=auto;html=1;exitX=0;exitY=0.75;exitDx=0;exitDy=0;fontSize=12;startSize=8;endSize=8;" edge="1" parent="GHh6FDXqc8ulfZKmopt3-80" source="GHh6FDXqc8ulfZKmopt3-82" target="GHh6FDXqc8ulfZKmopt3-82">
          <mxGeometry relative="1" as="geometry" />
        </mxCell>
        <mxCell id="GHh6FDXqc8ulfZKmopt3-101" value="báo giá" style="rounded=0;whiteSpace=wrap;html=1;" vertex="1" parent="GHh6FDXqc8ulfZKmopt3-80">
          <mxGeometry x="210" y="620" width="120" height="60" as="geometry" />
        </mxCell>
        <mxCell id="GHh6FDXqc8ulfZKmopt3-102" value="" style="endArrow=classic;html=1;rounded=0;fontSize=12;startSize=8;endSize=8;curved=1;exitX=0.5;exitY=1;exitDx=0;exitDy=0;entryX=0.5;entryY=0;entryDx=0;entryDy=0;" edge="1" parent="GHh6FDXqc8ulfZKmopt3-80" source="GHh6FDXqc8ulfZKmopt3-86" target="GHh6FDXqc8ulfZKmopt3-101">
          <mxGeometry width="50" height="50" relative="1" as="geometry">
            <mxPoint x="-115" y="680" as="sourcePoint" />
            <mxPoint x="-65" y="630" as="targetPoint" />
          </mxGeometry>
        </mxCell>
        <mxCell id="GHh6FDXqc8ulfZKmopt3-104" value="phản hồi thông tin khách hàng" style="rounded=0;whiteSpace=wrap;html=1;" vertex="1" parent="GHh6FDXqc8ulfZKmopt3-80">
          <mxGeometry x="40" y="520" width="120" height="60" as="geometry" />
        </mxCell>
        <mxCell id="GHh6FDXqc8ulfZKmopt3-107" value="" style="endArrow=classic;html=1;rounded=0;fontSize=12;startSize=8;endSize=8;curved=1;exitX=1;exitY=0.5;exitDx=0;exitDy=0;entryX=0;entryY=0.5;entryDx=0;entryDy=0;" edge="1" parent="GHh6FDXqc8ulfZKmopt3-80" source="GHh6FDXqc8ulfZKmopt3-104" target="GHh6FDXqc8ulfZKmopt3-86">
          <mxGeometry width="50" height="50" relative="1" as="geometry">
            <mxPoint x="-100" y="640" as="sourcePoint" />
            <mxPoint x="-50" y="590" as="targetPoint" />
          </mxGeometry>
        </mxCell>
        <mxCell id="GHh6FDXqc8ulfZKmopt3-95" value="&lt;font style=&quot;font-size: 30px;&quot;&gt;mô hình kinh doanh 2&lt;/font&gt;" style="text;html=1;align=center;verticalAlign=middle;resizable=0;points=[];autosize=1;strokeColor=none;fillColor=none;fontSize=16;" vertex="1" parent="1">
          <mxGeometry x="-65" y="1604" width="310" height="50" as="geometry" />
        </mxCell>
        <mxCell id="GHh6FDXqc8ulfZKmopt3-96" value="" style="endArrow=classic;startArrow=classic;html=1;rounded=0;fontSize=12;startSize=8;endSize=8;curved=1;entryX=0;entryY=0.5;entryDx=0;entryDy=0;exitX=1;exitY=0.5;exitDx=0;exitDy=0;" edge="1" parent="1" source="GHh6FDXqc8ulfZKmopt3-64" target="GHh6FDXqc8ulfZKmopt3-76">
          <mxGeometry width="50" height="50" relative="1" as="geometry">
            <mxPoint x="-100" y="1090" as="sourcePoint" />
            <mxPoint x="-50" y="1040" as="targetPoint" />
          </mxGeometry>
        </mxCell>
        <mxCell id="GHh6FDXqc8ulfZKmopt3-97" value="" style="endArrow=classic;startArrow=classic;html=1;rounded=0;fontSize=12;startSize=8;endSize=8;curved=1;entryX=0;entryY=0.5;entryDx=0;entryDy=0;exitX=1;exitY=0.5;exitDx=0;exitDy=0;" edge="1" parent="1" source="GHh6FDXqc8ulfZKmopt3-76" target="GHh6FDXqc8ulfZKmopt3-81">
          <mxGeometry width="50" height="50" relative="1" as="geometry">
            <mxPoint x="260" y="1090" as="sourcePoint" />
            <mxPoint x="-50" y="1040" as="targetPoint" />
          </mxGeometry>
        </mxCell>
        <mxCell id="GHh6FDXqc8ulfZKmopt3-103" value="" style="endArrow=classic;html=1;rounded=0;fontSize=12;startSize=8;endSize=8;curved=1;exitX=0;exitY=0.5;exitDx=0;exitDy=0;entryX=1;entryY=0.5;entryDx=0;entryDy=0;" edge="1" parent="1" source="GHh6FDXqc8ulfZKmopt3-101" target="GHh6FDXqc8ulfZKmopt3-75">
          <mxGeometry width="50" height="50" relative="1" as="geometry">
            <mxPoint x="140" y="1420" as="sourcePoint" />
            <mxPoint x="190" y="1370" as="targetPoint" />
          </mxGeometry>
        </mxCell>
        <mxCell id="GHh6FDXqc8ulfZKmopt3-105" value="" style="edgeStyle=segmentEdgeStyle;endArrow=classic;html=1;curved=0;rounded=0;endSize=8;startSize=8;fontSize=12;exitX=0.505;exitY=0;exitDx=0;exitDy=0;exitPerimeter=0;entryX=0;entryY=0.5;entryDx=0;entryDy=0;" edge="1" parent="1" source="GHh6FDXqc8ulfZKmopt3-75" target="GHh6FDXqc8ulfZKmopt3-104">
          <mxGeometry width="50" height="50" relative="1" as="geometry">
            <mxPoint x="305" y="1440" as="sourcePoint" />
            <mxPoint x="295" y="1220" as="targetPoint" />
            <Array as="points">
              <mxPoint x="250" y="1400" />
            </Array>
          </mxGeometry>
        </mxCell>
        <mxCell id="GHh6FDXqc8ulfZKmopt3-106" value="Yes" style="edgeLabel;html=1;align=center;verticalAlign=middle;resizable=0;points=[];fontSize=12;" vertex="1" connectable="0" parent="GHh6FDXqc8ulfZKmopt3-105">
          <mxGeometry x="-0.1838" y="-1" relative="1" as="geometry">
            <mxPoint x="22" y="-1" as="offset" />
          </mxGeometry>
        </mxCell>
        <mxCell id="GHh6FDXqc8ulfZKmopt3-100" value="" style="edgeStyle=segmentEdgeStyle;endArrow=classic;html=1;curved=0;rounded=0;endSize=8;startSize=8;fontSize=12;entryX=0;entryY=0.5;entryDx=0;entryDy=0;exitX=0.5;exitY=1;exitDx=0;exitDy=0;" edge="1" parent="1" source="GHh6FDXqc8ulfZKmopt3-64" target="GHh6FDXqc8ulfZKmopt3-82">
          <mxGeometry width="50" height="50" relative="1" as="geometry">
            <mxPoint x="-165" y="1110" as="sourcePoint" />
            <mxPoint x="365" y="1200" as="targetPoint" />
            <Array as="points">
              <mxPoint x="-90" y="1200" />
            </Array>
          </mxGeometry>
        </mxCell>
      </root>
    </mxGraphModel>
  </diagram>
</mxfile>
